<svg xmlns="http://www.w3.org/2000/svg" xmlns:xlink="http://www.w3.org/1999/xlink" width="300" zoomAndPan="magnify" viewBox="0 0 224.87999 149.999998" height="200" preserveAspectRatio="xMidYMid meet" version="1.0"><defs><clipPath id="2c56fa94f3"><path d="M 5 96 L 214 96 L 214 149.960938 L 5 149.960938 Z M 5 96 " clip-rule="nonzero"/></clipPath><clipPath id="0c651b45af"><path d="M 8.835938 92.542969 L 216.132812 104.457031 L 212.21875 172.558594 L 4.921875 160.640625 Z M 8.835938 92.542969 " clip-rule="nonzero"/></clipPath><clipPath id="6bd6c3b6a6"><path d="M 8.835938 92.542969 L 216.132812 104.457031 L 212.777344 162.828125 L 5.480469 150.914062 Z M 8.835938 92.542969 " clip-rule="nonzero"/></clipPath><clipPath id="c89bae4d6d"><path d="M 8.835938 92.542969 L 216.132812 104.457031 L 212.21875 172.558594 L 4.921875 160.640625 Z M 8.835938 92.542969 " clip-rule="nonzero"/></clipPath></defs><g clip-path="url(#2c56fa94f3)"><g clip-path="url(#0c651b45af)"><g clip-path="url(#6bd6c3b6a6)"><g clip-path="url(#c89bae4d6d)"><path fill="#000000" d="M 5.972656 160.167969 C 5.203125 159.304688 5.824219 157.664062 7.554688 156.011719 C 8.550781 155.054688 11 152.53125 12.996094 150.402344 C 16.847656 146.292969 19.058594 145.226562 20.167969 146.9375 C 20.511719 147.464844 21.078125 147.914062 21.429688 147.9375 C 21.78125 147.957031 22.046875 148.367188 22.019531 148.847656 C 21.992188 149.34375 21.546875 149.660156 20.992188 149.574219 C 19.640625 149.367188 17.449219 149.984375 17.414062 150.582031 C 17.398438 150.855469 16.851562 151.554688 16.199219 152.132812 C 15.546875 152.714844 14.984375 153.679688 14.949219 154.277344 C 14.914062 154.875 14.582031 155.53125 14.214844 155.730469 C 13.75 155.980469 13.660156 155.71875 13.925781 154.902344 C 14.398438 153.453125 13.527344 153.246094 12.980469 154.679688 C 12.707031 155.390625 12.203125 155.605469 11.328125 155.386719 C 10.414062 155.15625 9.84375 155.4375 9.246094 156.417969 C 8.019531 158.417969 8.710938 159.164062 11.039062 158.347656 C 12.101562 157.972656 13.105469 157.820312 13.269531 158.003906 C 13.75 158.542969 11.652344 159.707031 10.308594 159.652344 C 9.628906 159.621094 8.90625 159.839844 8.695312 160.136719 C 8.269531 160.75 6.507812 160.769531 5.972656 160.167969 Z M 60.492188 150.808594 C 56.496094 150.332031 54.515625 149.835938 53.566406 149.078125 C 52.832031 148.496094 51.546875 147.980469 50.707031 147.929688 C 49.867188 147.882812 49.039062 147.582031 48.867188 147.261719 C 48.691406 146.945312 48.101562 146.65625 47.550781 146.625 C 46.996094 146.59375 46.117188 146.035156 45.59375 145.386719 C 44.425781 143.9375 42.828125 143.777344 42.027344 145.027344 C 41.464844 145.914062 41.328125 145.90625 39.457031 144.882812 C 37.136719 143.609375 35.136719 143.394531 33.570312 144.253906 C 32.664062 144.75 32.078125 144.667969 30.558594 143.835938 C 27.824219 142.332031 24.984375 141.75 23.574219 142.402344 C 22.625 142.84375 22.367188 142.804688 22.398438 142.230469 C 22.421875 141.824219 21.589844 140.511719 20.550781 139.3125 C 18.191406 136.589844 18.695312 135.4375 21.414062 137.335938 L 23.359375 138.695312 L 24.242188 137.519531 C 24.863281 136.691406 25.699219 136.371094 27.023438 136.449219 C 29.347656 136.582031 29.773438 135.082031 27.523438 134.6875 C 26.703125 134.542969 25.941406 134.082031 25.832031 133.660156 C 25.675781 133.078125 26.3125 132.984375 28.570312 133.257812 C 31.816406 133.648438 33.082031 132.695312 30.714844 131.636719 C 28.882812 130.820312 28.574219 130.09375 29.15625 128.011719 C 29.5625 126.578125 29.757812 126.410156 30.246094 127.105469 C 30.570312 127.570312 31.636719 128.585938 32.613281 129.359375 C 34.035156 130.484375 34.5625 130.640625 35.242188 130.140625 C 36.109375 129.503906 37.59375 127.390625 38.304688 125.777344 C 38.523438 125.289062 39.328125 124.59375 40.097656 124.238281 C 41.550781 123.566406 42.003906 122.6875 40.929688 122.625 C 40.339844 122.59375 37.726562 124.261719 35.679688 125.980469 C 35.164062 126.414062 34.441406 126.75 34.074219 126.730469 C 32.660156 126.648438 34.433594 123.566406 37.546875 120.703125 C 39.3125 119.078125 41.359375 116.96875 42.097656 116.011719 C 43.339844 114.402344 43.617188 114.300781 45.808594 114.707031 C 47.921875 115.101562 48.183594 115.023438 48.242188 114 C 48.367188 111.847656 50.863281 113.519531 55.625 118.941406 C 57.578125 121.164062 57.980469 122.878906 56.367188 122.105469 C 53.445312 120.703125 52.816406 121.039062 53.925781 123.421875 C 54.324219 124.28125 54.226562 124.75 53.53125 125.371094 C 53.027344 125.820312 52.589844 126.554688 52.566406 127.003906 C 52.527344 127.6875 52.75 127.683594 53.972656 126.980469 C 55.378906 126.171875 55.476562 126.207031 57.007812 128.046875 C 57.882812 129.097656 58.554688 130.566406 58.511719 131.332031 C 58.4375 132.617188 58.261719 132.695312 55.933594 132.417969 C 52.980469 132.0625 52.566406 132.320312 52.941406 134.277344 C 53.195312 135.617188 53.410156 135.730469 55.328125 135.535156 C 60.082031 135.050781 60.125 135.03125 59.832031 133.503906 C 59.234375 130.375 61.734375 130.773438 62.855469 133.988281 L 63.464844 135.730469 L 74.207031 136.34375 C 106.242188 138.175781 146.46875 137.402344 183.957031 134.234375 C 186.292969 134.035156 191.121094 133.8125 194.6875 133.738281 C 203.304688 133.5625 206.976562 133.082031 209.941406 131.75 C 213.902344 129.96875 214.363281 132.085938 210.714844 135.332031 C 210.21875 135.773438 208.648438 136.242188 207.226562 136.371094 C 203.820312 136.683594 198.335938 138.84375 198.277344 139.898438 C 198.25 140.355469 197.019531 141.183594 195.539062 141.738281 C 193.203125 142.613281 192.175781 142.660156 187.773438 142.097656 C 184.71875 141.707031 182.351562 141.652344 181.824219 141.957031 C 181.179688 142.332031 181.6875 142.527344 183.753906 142.703125 C 187.449219 143.011719 187.628906 143.054688 187.917969 143.730469 C 188.0625 144.0625 186.757812 144.375 184.816406 144.472656 C 182.722656 144.574219 181.199219 144.960938 180.75 145.503906 C 180.359375 145.980469 179.625 146.34375 179.117188 146.316406 C 177.964844 146.25 177.859375 147.136719 178.960938 147.636719 C 181.785156 149.011719 173.523438 148.902344 170.402344 149.253906 C 167.921875 149.472656 165.246094 149.871094 164.453125 150.144531 C 163.664062 150.417969 162.257812 150.644531 161.328125 150.652344 C 160.398438 150.660156 157.980469 150.839844 155.953125 151.050781 C 153.925781 151.261719 149.910156 151.457031 147.023438 151.488281 C 144.136719 151.519531 141.367188 151.671875 140.875 151.828125 C 140.324219 152.003906 139.636719 151.605469 139.101562 150.804688 C 138.257812 149.542969 138.066406 149.507812 133.738281 149.832031 C 131.269531 150.015625 125.472656 150.34375 120.855469 150.558594 C 116.238281 150.773438 111.988281 151.167969 111.410156 151.433594 C 110.214844 151.984375 95.371094 152.160156 83.417969 151.761719 C 79.027344 151.617188 73.328125 151.492188 70.761719 151.488281 C 68.191406 151.484375 63.570312 151.175781 60.492188 150.808594 Z M 152.722656 148.453125 C 153.132812 148.011719 154.042969 147.6875 154.742188 147.726562 C 155.441406 147.765625 156.640625 147.308594 157.40625 146.710938 L 158.800781 145.625 L 157.375 145.917969 C 156.589844 146.078125 154.675781 146.34375 153.117188 146.503906 C 151.558594 146.667969 149.824219 146.957031 149.261719 147.144531 C 148.28125 147.472656 148.277344 147.519531 149.195312 148.300781 C 150.460938 149.378906 151.804688 149.4375 152.722656 148.453125 Z M 72.492188 141.351562 C 72.992188 141.109375 71.945312 140.722656 69.757812 140.347656 C 67.804688 140.011719 65.9375 139.484375 65.601562 139.171875 C 64.414062 138.066406 49.847656 136.496094 41.597656 136.582031 C 37.257812 136.625 33.632812 136.441406 33.546875 136.175781 C 33.285156 135.382812 31.238281 135.5 31.191406 136.308594 C 31.121094 137.5625 39.414062 139.027344 52.9375 140.148438 C 59.875 140.722656 66.929688 141.316406 68.617188 141.46875 C 70.300781 141.621094 72.046875 141.566406 72.492188 141.351562 Z M 102.980469 141.710938 C 103.75 141.460938 118.316406 141.871094 131.914062 142.523438 C 135.679688 142.707031 136.789062 142.597656 136.335938 142.089844 C 135.421875 141.066406 121.265625 140.109375 98.738281 139.554688 C 83.53125 139.175781 78.902344 139.226562 78.871094 139.765625 C 78.847656 140.15625 79.390625 140.621094 80.078125 140.800781 C 81.816406 141.253906 101.925781 142.054688 102.980469 141.710938 Z M 154.324219 141.789062 C 178.25 140.242188 184.09375 139.539062 194.789062 136.917969 C 199.25 135.828125 199.375 135.78125 199.019531 135.378906 C 198.519531 134.820312 173.96875 135.910156 171.996094 136.582031 C 170.890625 136.957031 167.308594 137.492188 164.039062 137.777344 C 152.78125 138.753906 152.476562 138.769531 141.167969 138.785156 C 137.761719 138.789062 134.078125 138.933594 132.984375 139.105469 C 131.289062 139.371094 131.820312 139.558594 136.570312 140.398438 C 139.636719 140.9375 143.027344 141.515625 144.101562 141.683594 C 145.175781 141.847656 146.34375 142.042969 146.699219 142.113281 C 147.054688 142.183594 150.484375 142.035156 154.324219 141.789062 Z M 44.417969 134 C 44.996094 133.386719 45.488281 132.570312 45.507812 132.1875 C 45.53125 131.804688 46.769531 131.179688 48.265625 130.796875 C 50.253906 130.289062 51.046875 129.785156 51.226562 128.917969 C 51.363281 128.265625 51.199219 127.714844 50.863281 127.695312 C 49.597656 127.621094 42.582031 130.644531 39.734375 132.488281 C 37.164062 134.15625 36.910156 134.472656 37.8125 134.910156 C 39.511719 135.734375 43.273438 135.214844 44.417969 134 Z M 36.382812 134.175781 C 36.398438 133.867188 36.148438 133.597656 35.820312 133.578125 C 35.492188 133.5625 35.367188 133.804688 35.539062 134.125 C 35.714844 134.445312 35.964844 134.710938 36.101562 134.71875 C 36.238281 134.726562 36.363281 134.480469 36.382812 134.175781 Z M 41.835938 126.734375 C 41.839844 126.148438 41.71875 126.039062 41.523438 126.457031 C 41.34375 126.832031 40.730469 127.113281 40.15625 127.082031 C 38.898438 127.007812 38.140625 127.890625 39.109375 128.300781 C 40.179688 128.753906 41.824219 127.808594 41.835938 126.734375 Z M 20.597656 144.234375 C 20.621094 143.769531 21.015625 143.414062 21.46875 143.4375 C 21.972656 143.46875 22.148438 143.808594 21.921875 144.308594 C 21.71875 144.761719 21.324219 145.117188 21.050781 145.101562 C 20.773438 145.085938 20.570312 144.695312 20.597656 144.234375 Z M 57.140625 125.808594 C 57.160156 125.5 57.550781 125.269531 58.015625 125.296875 C 58.480469 125.320312 58.84375 125.597656 58.824219 125.902344 C 58.808594 126.210938 58.414062 126.441406 57.953125 126.417969 C 57.488281 126.390625 57.125 126.117188 57.140625 125.808594 Z M 26.183594 115.625 C 26.308594 113.898438 37.335938 104.5 30.855469 113.402344 C 30.023438 114.546875 34.609375 113.464844 38.175781 112.660156 C 44.257812 111.285156 46.003906 111.371094 43.957031 112.941406 C 42.597656 113.988281 40.5625 114.503906 32.226562 115.929688 C 26.136719 116.96875 26.105469 116.96875 26.183594 115.625 Z M 55.546875 111.890625 C 54.871094 111.132812 55.125 110.679688 57.570312 108.308594 C 58.871094 107.039062 60.40625 105.144531 60.980469 104.097656 C 61.550781 103.046875 63.054688 101.289062 64.316406 100.191406 C 65.582031 99.089844 66.636719 97.839844 66.660156 97.40625 C 66.734375 96.101562 67.738281 95.953125 69.484375 96.984375 C 71.800781 98.355469 71.625 100.417969 69.105469 101.441406 C 66.75 102.398438 57.871094 109.453125 56.558594 111.410156 C 56.21875 111.917969 55.765625 112.132812 55.546875 111.890625 Z M 47.933594 109.585938 C 46.894531 108.917969 40.386719 107.253906 38.359375 107.136719 C 36.761719 107.042969 36.597656 106.769531 37.25 105.328125 C 37.734375 104.253906 40.929688 104.730469 47.386719 106.835938 C 51.738281 108.257812 52.945312 109.296875 50.96875 109.925781 C 49.761719 110.3125 48.921875 110.21875 47.933594 109.585938 Z M 47.933594 109.585938 " fill-opacity="1" fill-rule="nonzero"/></g></g></g></g></svg>